<svg xmlns="http://www.w3.org/2000/svg" viewBox="0 0 60 60">
  <defs>
    <linearGradient id="g" x1="0" y1="0" x2="1" y2="1">
      <stop offset="0%" stop-color="#F6C9DC"/><stop offset="100%" stop-color="#D8C3F0"/>
    </linearGradient>
  </defs>
  <circle cx="30" cy="30" r="24" fill="url(#g)"/>
  <g fill="#FFF9F4" opacity=".9">
    <circle cx="30" cy="3" r="2.6"/><circle cx="43.5" cy="6.6" r="2.6"/><circle cx="53.4" cy="16.5" r="2.6"/>
    <circle cx="57" cy="30" r="2.6"/><circle cx="53.4" cy="43.5" r="2.6"/><circle cx="43.5" cy="53.4" r="2.6"/>
    <circle cx="30" cy="57" r="2.6"/><circle cx="16.5" cy="53.4" r="2.6"/><circle cx="6.6" cy="43.5" r="2.6"/>
    <circle cx="3" cy="30" r="2.6"/><circle cx="6.6" cy="16.5" r="2.6"/><circle cx="16.5" cy="6.6" r="2.6"/>
  </g>
  <path d="M30,39 C30,39 16,29.5 16,20.5 C16,14.5 21,11 25.5,14.3 C27.3,15.6 30,18.3 30,18.3 C30,18.3 32.7,15.6 34.5,14.3 C39,11 44,14.5 44,20.5 C44,29.5 30,39 30,39 Z" fill="#FFF9F4"/>
  <circle cx="42" cy="40" r="9.5" fill="#4A3047"/>
  <path d="M38,40 L41,43 L46.5,36.5" stroke="#FFF9F4" stroke-width="2.8" fill="none" stroke-linecap="round" stroke-linejoin="round"/>
</svg>
